<?xml version="1.0" encoding="UTF-8" standalone="no"?>
<!DOCTYPE svg PUBLIC "-//W3C//DTD SVG 1.1//EN"
 "http://www.w3.org/Graphics/SVG/1.1/DTD/svg11.dtd">
<!-- Generated by graphviz version 2.43.0 (0)
 -->
<!-- Title: pastafarianism Pages: 1 -->
<svg width="208pt" height="116pt"
 viewBox="0.00 0.00 208.22 116.00" xmlns="http://www.w3.org/2000/svg" xmlns:xlink="http://www.w3.org/1999/xlink">
<g id="graph0" class="graph" transform="scale(1 1) rotate(0) translate(4 112)">
<title>pastafarianism</title>
<polygon fill="white" stroke="transparent" points="-4,4 -4,-112 204.22,-112 204.22,4 -4,4"/>
<!-- Root Sequence -->
<g id="node1" class="node">
<title>Root Sequence</title>
<polygon fill="orange" stroke="black" points="149.77,-108 51.77,-108 51.77,-72 149.77,-72 149.77,-108"/>
<text text-anchor="middle" x="100.77" y="-87.8" font-family="Times,serif" font-size="9.00">Ⓜ Root Sequence</text>
</g>
<!-- Success Node -->
<g id="node2" class="node">
<title>Success Node</title>
<ellipse fill="gray" stroke="black" cx="46.77" cy="-18" rx="46.53" ry="18"/>
<text text-anchor="middle" x="46.77" y="-15.8" font-family="Times,serif" font-size="9.00">Success Node</text>
</g>
<!-- Root Sequence&#45;&gt;Success Node -->
<g id="edge1" class="edge">
<title>Root Sequence&#45;&gt;Success Node</title>
<path fill="none" stroke="black" d="M87.42,-71.7C80.91,-63.27 72.97,-52.97 65.84,-43.73"/>
<polygon fill="black" stroke="black" points="68.47,-41.4 59.59,-35.62 62.93,-45.68 68.47,-41.4"/>
</g>
<!-- Failure Node -->
<g id="node3" class="node">
<title>Failure Node</title>
<ellipse fill="gray" stroke="black" cx="155.77" cy="-18" rx="44.41" ry="18"/>
<text text-anchor="middle" x="155.77" y="-15.8" font-family="Times,serif" font-size="9.00">Failure Node</text>
</g>
<!-- Root Sequence&#45;&gt;Failure Node -->
<g id="edge2" class="edge">
<title>Root Sequence&#45;&gt;Failure Node</title>
<path fill="none" stroke="black" d="M114.36,-71.7C120.99,-63.27 129.07,-52.97 136.33,-43.73"/>
<polygon fill="black" stroke="black" points="139.28,-45.65 142.7,-35.62 133.77,-41.32 139.28,-45.65"/>
</g>
</g>
</svg>
